<svg width="238" height="224" viewBox="0 0 238 224" fill="none" xmlns="http://www.w3.org/2000/svg"><path d="M237.532 63.204C237.532 76.3276 237.789 89.4636 237.344 102.579C237.155 106.054 235.75 109.364 233.361 111.965C197.278 147.999 161.053 183.906 124.685 219.686C119.05 225.256 118.502 225.236 112.705 219.495C76.9161 184.082 41.1031 148.683 5.26575 113.298C3.52795 111.734 2.15909 109.826 1.25241 107.704C0.345724 105.582 -0.0774889 103.296 0.0116505 101.002C0.246972 75.3881 0.0972231 49.77 0.246973 24.1518C0.559136 21.7424 1.17706 19.3794 2.08676 17.1161C4.55686 18.0164 6.88538 19.245 9.00522 20.7664C17.879 29.2382 26.6714 37.8135 35.0745 46.7198C37.2811 49.1933 38.5993 52.2922 38.8311 55.5516C39.2889 65.8982 38.737 76.3028 39.1863 86.6576C39.3534 89.9409 40.6535 93.0752 42.8787 95.5598C66.5862 119.316 90.6189 142.769 114.391 166.471C117.95 170.022 120.214 169.492 123.457 166.268C147.259 142.6 171.257 119.109 194.96 95.3446C196.984 92.9704 198.123 90.007 198.195 86.9308C198.584 76.5842 198.127 66.1838 198.529 55.8207C198.655 52.7384 199.823 49.7812 201.853 47.4027C210.902 37.9169 220.332 28.7788 229.792 19.6738C231.464 18.5156 233.312 17.6151 235.269 17.0044C236.264 18.7311 236.964 20.6026 237.34 22.546C237.515 36.0918 237.434 49.6417 237.434 63.1916H237.528" fill="url(#paint0_linear_185_188)"></path><path d="M119.125 0.177807C146.675 0.177807 174.22 0.124004 201.77 0.260579C204.657 0.560583 207.503 1.15715 210.259 2.04019C208.986 4.7519 207.407 7.31956 205.552 9.69667C196.867 18.6278 188.036 27.439 178.965 36.006C177.291 37.4872 175.985 39.3151 175.143 41.3532C174.301 43.3913 173.946 45.5869 174.105 47.7762C174.404 58.5367 174.434 69.3551 174.049 80.1238C173.933 83.2044 172.752 86.1582 170.695 88.5128C155.177 104.285 139.273 119.71 123.665 135.404C120.054 139.033 117.418 138.835 113.923 135.325C98.4427 119.801 82.689 104.529 67.3418 88.8853C65.1642 86.3773 63.9117 83.2394 63.782 79.9666C63.3542 69.2061 63.4526 58.396 63.7136 47.6148C63.8582 45.5298 63.5156 43.44 62.7113 41.5006C61.9069 39.5611 60.6613 37.8218 59.067 36.4116C49.9922 27.857 41.1698 19.0293 32.4885 10.0981C30.4696 7.57824 28.7166 4.86909 27.2559 2.01122C30.266 1.14723 33.3551 0.565142 36.4804 0.272995C64.0302 0.13642 91.5841 0.177807 119.125 0.177807Z" fill="url(#paint1_linear_185_188)"></path><defs><linearGradient id="paint0_linear_185_188" x1="118.803" y1="17.0044" x2="118.803" y2="223.833" gradientUnits="userSpaceOnUse"><stop stop-color="#E9DDFF"></stop><stop offset="1" stop-color="#CFBCFF"></stop></linearGradient><linearGradient id="paint1_linear_185_188" x1="118.757" y1="0.167358" x2="118.757" y2="138.042" gradientUnits="userSpaceOnUse"><stop stop-color="#E9DDFF"></stop><stop offset="1" stop-color="#CFBCFF"></stop></linearGradient></defs></svg>